<?xml version="1.0" encoding="utf-8"?>
<svg viewBox="0 0 100 125" x="0px" y="0px" xmlns="http://www.w3.org/2000/svg" xmlns:bx="https://boxy-svg.com">
  <defs>
    <style>.a{fill:#231f20;}</style>
    <style bx:fonts="ADLaM Display">@import url(https://fonts.googleapis.com/css2?family=ADLaM+Display%3Aital%2Cwght%400%2C400&amp;display=swap);</style>
  </defs>
  <title>100icons2017</title>
  <path class="a" d="M77.11,91.85H21a.85.85,0,0,1-.85-.85V34.55a.85.85,0,0,1,1.45-.6l5.16,5.16,6.8-6.8a.87.87,0,0,1,1.2,0l6.8,6.8,6.86-6.86a.85.85,0,0,1,1.2,0l6.86,6.86,6.8-6.8a.87.87,0,0,1,1.2,0l6.8,6.8L76.51,34a.85.85,0,0,1,1.45.6V91A.85.85,0,0,1,77.11,91.85Zm-55.22-1.7H76.26V36.6l-4.31,4.31a.85.85,0,0,1-1.2,0l-6.8-6.8-6.8,6.8a.85.85,0,0,1-1.2,0l-6.86-6.86-6.86,6.86a.85.85,0,0,1-1.2,0l-6.8-6.8-6.8,6.8a.85.85,0,0,1-1.2,0L21.89,36.6Z"/>
  <path class="a" d="M40.53,40.08a.85.85,0,0,1-.34-1.63c1.89-.81,1.59-8.45.58-11.19a4.43,4.43,0,0,0-7.07-1.83A6.49,6.49,0,0,1,29.43,27h-.15a4.44,4.44,0,0,0-4.15,6,20.88,20.88,0,0,0,3.6,5.48.85.85,0,1,1-1.27,1.13,22.6,22.6,0,0,1-3.93-6,6.15,6.15,0,0,1,3.65-7.88,5.54,5.54,0,0,1,2.19-.37,4.84,4.84,0,0,0,3.22-1.18A6.08,6.08,0,0,1,34.49,23a6.14,6.14,0,0,1,7.88,3.65c.86,2.35,2,11.83-1.51,13.34A.85.85,0,0,1,40.53,40.08Z"/>
  <path class="a" d="M27.13,33.62a.85.85,0,0,1-.76-.46,3.71,3.71,0,0,1,.55-4.27.85.85,0,0,1,1.21,1.19,2,2,0,0,0-.24,2.3.85.85,0,0,1-.37,1.14A.84.84,0,0,1,27.13,33.62Z"/>
  <path class="a" d="M75.75,36.26l-.2,0a.85.85,0,0,1-.62-1L77.6,24.36a14.94,14.94,0,0,0,0-7.78c-.64-2.08-1.79-3.42-3.24-3.78s-3.09.3-4.62,1.84a14.94,14.94,0,0,0-3.61,6.89L62.7,35.19a.85.85,0,1,1-1.65-.41l3.43-13.64a16.64,16.64,0,0,1,4-7.67c2-2,4.18-2.8,6.24-2.3s3.64,2.26,4.46,4.93a16.64,16.64,0,0,1,0,8.68L76.58,35.62A.85.85,0,0,1,75.75,36.26Z"/>
  <path class="a" d="M77.54,25.87a.85.85,0,0,1-.71-.38A6.4,6.4,0,0,0,70,23.82a.85.85,0,0,1-1.12-.28,2.57,2.57,0,0,1-.43-2.05,3,3,0,0,1,2.38-2,8.69,8.69,0,0,1,7.25,1.79,3,3,0,0,1,1.17,2.9A2.58,2.58,0,0,1,78,25.77.86.86,0,0,1,77.54,25.87Zm-5.61-4.15a9.09,9.09,0,0,1,2.16.27,7.89,7.89,0,0,1,3.53,1.81l0-.06c.08-.33-.16-.79-.66-1.24a7,7,0,0,0-5.69-1.4c-.64.17-1.07.46-1.16.79V22A6.61,6.61,0,0,1,71.93,21.72Z"/>
  <path class="a" d="M76.12,31.65a.85.85,0,0,1-.71-.38,6.4,6.4,0,0,0-6.79-1.67.85.85,0,0,1-1.12-.28,2.57,2.57,0,0,1-.43-2.05c.46-1.87,3.13-2.72,6.21-2s5.05,2.74,4.59,4.62a2.57,2.57,0,0,1-1.33,1.62A.86.86,0,0,1,76.12,31.65ZM70.51,27.5a9,9,0,0,1,2.16.27,7.89,7.89,0,0,1,3.53,1.81l0-.06c.16-.67-1.06-2-3.35-2.56s-4,0-4.15.71v.06A6.57,6.57,0,0,1,70.51,27.5Z"/>
  <path class="a" d="M74.72,37.43A.85.85,0,0,1,74,37a6.4,6.4,0,0,0-6.79-1.67.85.85,0,0,1-1.12-.28A2.57,2.57,0,0,1,65.66,33,3,3,0,0,1,68,31,8.69,8.69,0,0,1,75.3,32.8a3,3,0,0,1,1.17,2.9,2.58,2.58,0,0,1-1.33,1.62A.86.86,0,0,1,74.72,37.43Zm-5.61-4.15a9,9,0,0,1,2.15.27,7.89,7.89,0,0,1,3.53,1.81l0-.06c.08-.33-.16-.79-.66-1.24a7,7,0,0,0-5.69-1.4c-.64.17-1.07.46-1.16.79v.06A6.57,6.57,0,0,1,69.11,33.28Z"/>
  <path class="a" d="M53.74,37.43a.85.85,0,0,1-.85-.85V17.15a.85.85,0,0,1,1.7,0V36.58A.85.85,0,0,1,53.74,37.43Z"/>
  <path class="a" d="M50.68,35a.85.85,0,0,1-.85-.85v-17a.85.85,0,0,1,1.7,0v17A.85.85,0,0,1,50.68,35Z"/>
  <path class="a" d="M59.58,37.8a.85.85,0,0,1-.85-.85V17.15a.85.85,0,0,1,1.7,0v19.8A.85.85,0,0,1,59.58,37.8Z"/>
  <path class="a" d="M56.39,39.69a.85.85,0,0,1-.85-.85V17.15a.85.85,0,0,1,1.7,0V38.84A.85.85,0,0,1,56.39,39.69Z"/>
  <path class="a" d="M47.17,19.46a5.27,5.27,0,0,1-4.41-2.74A10.2,10.2,0,0,1,41.88,15a.85.85,0,0,1,.29-1c.13-.1,2.78-2,5.28-1.19a7.34,7.34,0,0,1,1.74-3.93.85.85,0,0,1,1.16-.14,7.28,7.28,0,0,1,2.5,3.87.85.85,0,0,1-1.66.39A5.34,5.34,0,0,0,50,10.7a4.7,4.7,0,0,0-.79,3.38.85.85,0,0,1-1.39.84c-1.28-1.14-3.1-.4-4,.09a7.66,7.66,0,0,0,.44.79c1.4,2.16,3,2,3.12,2a.85.85,0,0,1,1,.71.84.84,0,0,1-.69,1A2.54,2.54,0,0,1,47.17,19.46Z"/>
  <path class="a" d="M62.88,18a.85.85,0,0,1-.52-1.52,3.51,3.51,0,0,0,1.15-3.41,4.32,4.32,0,0,0-3.08,1.32A.85.85,0,0,1,59,13.62a3.69,3.69,0,0,0-.89-3.67,4,4,0,0,0-2.5,3.83.85.85,0,1,1-1.7,0A5.7,5.7,0,0,1,58,8.18a.85.85,0,0,1,.68.1A5,5,0,0,1,60.8,12a5.22,5.22,0,0,1,3.59-.55.85.85,0,0,1,.63.58c0,.15,1.11,3.67-1.63,5.77A.85.85,0,0,1,62.88,18Z"/>
  <path class="a" d="M46.24,23.86a2.71,2.71,0,0,1-1.5-.43.85.85,0,0,1-.36-.6c-.42-3.71,1.86-5,3.13-5.14a.85.85,0,0,1,.21,1.69c-.2,0-1.78.35-1.69,2.78a1.53,1.53,0,0,0,1.42-.66.85.85,0,0,1,1.27,1.13A3.3,3.3,0,0,1,46.24,23.86Z"/>
  <path class="a" d="M29.51,25.87a.85.85,0,0,1-.85-.85V17.15a.85.85,0,0,1,.85-.85H40.74a.85.85,0,1,1,0,1.7H30.36v7A.85.85,0,0,1,29.51,25.87Z"/>
  <path class="a" d="M39.86,21H29.51a.85.85,0,1,1,0-1.7H39.86a.85.85,0,1,1,0,1.7Z"/>
  <path class="a" d="M37.91,70.74a.85.85,0,0,1-.82-.63l-1.51-5.77a.85.85,0,0,1,.61-1L60.33,57a.85.85,0,0,1,1,.61l1.51,5.77a.85.85,0,0,1-.61,1L38.12,70.72Zm-.47-6,1.08,4.12L61,63l-1.08-4.12Z"/>
  <path class="a" d="M39.46,64.18a.85.85,0,0,1-.85-.9,10.63,10.63,0,0,1,19.6-5.12.85.85,0,0,1-.5,1.28l-18,4.71Zm9.79-9.26a9,9,0,0,0-2.28.29,8.9,8.9,0,0,0-6.52,7l15.62-4.08A8.89,8.89,0,0,0,49.24,54.92Z"/>
  <path class="a" d="M49.2,74.5a10.59,10.59,0,0,1-9-4.94.85.85,0,0,1,.5-1.28l18-4.71a.85.85,0,0,1,1.06.87,10.6,10.6,0,0,1-7.93,9.71A10.72,10.72,0,0,1,49.2,74.5ZM42.38,69.6A8.94,8.94,0,0,0,58,65.52Z"/>
  <text style="font-family: 'ADLaM Display'; font-size: 8px; font-weight: 700; white-space: pre;" x="22.192" y="100.247">Igredient Cart</text>
  <text x="0" y="120" fill="rgba(101, 67, 33, 1)" font-size="5px" font-weight="bold" font-family="'Helvetica Neue', Helvetica, Arial-Unicode, Arial, Sans-serif" style="white-space: pre;"> </text>
</svg>